<svg id="Calque_1" data-name="Calque 1" xmlns="http://www.w3.org/2000/svg" viewBox="0 0 500 500"><defs><style>.cls-1{fill:#8c1821;}.cls-1,.cls-2,.cls-3,.cls-4,.cls-5,.cls-6{stroke:#1d1d1b;stroke-miterlimit:10;}.cls-1,.cls-2,.cls-3,.cls-4,.cls-5{stroke-width:3.68px;}.cls-2{fill:#2d5faa;}.cls-3{fill:#f1860b;}.cls-4{fill:#019cd9;}.cls-5{fill:#f1b709;}.cls-6{fill:none;stroke-width:9.21px;}</style></defs><path class="cls-1" d="M494.76,250.31l-35.48,61.28c-1.84-.83-3.68-1.62-5.54-2.36-.94-.38-1.86-.73-2.82-1.08s-1.88-.68-2.84-1-1.9-.62-2.87-.92l-2.89-.85c-.8-.22-1.59-.42-2.38-.62-1.16-.3-2.32-.59-3.48-.85-.85-.18-1.7-.37-2.54-.53q-.39-.09-.78-.15l-2.41-.44-.39-.06c-.66-.11-1.32-.22-2-.31-2.29-.33-4.61-.63-6.95-.81-.9-.08-1.82-.15-2.74-.2-2.18-.13-4.35-.19-6.54-.19-42.54-.05-80.24,23.75-103.51,60.42-2.21-5.1-4.43-10.15-6.72-15.18-14.75-32.62-32.51-66.68-63.9-83.94-22.86-12.56-49.9-14.4-75.94-15.77-24.83-1.29-50.42-2.23-75,.8L459.47,189Z"/><path class="cls-2" d="M5.24,249.68,82.37,116.5A274.59,274.59,0,0,0,113,114.58l-83.79,142h0l-18.26,2.87Z"/><path class="cls-3" d="M72.85,249.77a150.75,150.75,0,0,0-41.1,13.89A89.67,89.67,0,0,0,21.23,270l-2.17,3.68-8.18-14.22,18.25-2.85h0Z"/><path class="cls-4" d="M113,114.58l45.23-76.66,89,.12C228.86,77,177.14,106.89,113,114.58Z"/><path class="cls-5" d="M308.61,361.65c23.25-36.68,61-60.49,103.5-60.44,2.19,0,4.37.07,6.54.2.92,0,1.84.13,2.75.2,2.34.19,4.66.47,6.94.8l2,.32.38.06,2.42.44.77.15c.85.17,1.69.35,2.54.54,1.16.26,2.32.53,3.48.83l2.38.63,2.89.85c1,.3,1.91.61,2.87.93s1.9.64,2.84,1l2.81,1.08c1.86.74,3.7,1.53,5.54,2.36l-34.89,60.26c-23.93.73-48.32,6.74-71.69,12.77l-31.54,8.15C317.27,382.27,313,371.89,308.61,361.65Z"/><path class="cls-3" d="M321.15,392.77l31.54-8.15c23.37-6,47.76-12,71.69-12.77L372.1,462.12l-32.79,0C336.14,438.55,329.5,415.41,321.15,392.77Z"/><path class="cls-1" d="M82.37,116.5,127.9,37.88l30.28,0L113,114.58A274.59,274.59,0,0,1,82.37,116.5Z"/><path class="cls-1" d="M284.18,447.64c0,4.85.18,9.66.61,14.37l-157.44-.2-11.57-20.1c29.35-3.48,58.32-10.94,87-18.34Q246.85,412,291,400.56A166,166,0,0,0,284.18,447.64Z"/><path class="cls-2" d="M308.6,361.64A155.28,155.28,0,0,0,291,400.56Q246.89,412,202.78,423.37c-28.68,7.4-57.65,14.86-87,18.34l-96.72-168L21.23,270a89.67,89.67,0,0,1,10.52-6.36,150.75,150.75,0,0,1,41.1-13.89L87,247.55c24.63-3,50.22-2.09,75.05-.8,26,1.37,53.08,3.21,75.94,15.77,31.39,17.26,49.15,51.32,63.9,83.94C304.17,351.49,306.39,356.54,308.6,361.64Z"/><path class="cls-3" d="M321.15,392.77q-15.09,3.93-30.19,7.79a155.28,155.28,0,0,1,17.64-38.92C313,371.9,317.28,382.27,321.15,392.77Z"/><path class="cls-5" d="M29.16,256.62l83.79-142C177.14,106.89,228.86,77,247.21,38l125.44.16L459.47,189,87,247.54c-4.75.59-9.47,1.32-14.15,2.23Z"/><path class="cls-5" d="M284.18,447.64A166.28,166.28,0,0,1,291,400.56q15.09-3.87,30.19-7.79c8.35,22.64,15,45.78,18.16,69.31L284.79,462C284.37,457.29,284.17,452.48,284.18,447.64Z"/><polygon class="cls-6" points="5.24 249.68 82.37 116.5 127.9 37.88 372.65 38.2 459.47 189 494.76 250.32 459.27 311.59 424.38 371.85 372.1 462.12 127.35 461.8 115.79 441.71 19.06 273.7 10.88 259.49 5.24 249.68"/></svg>